# xmcd
#
# Track frame offsets: 
#        150
#        18429
#        31000
#        49672
#        70930
#        92661
#        110955
#        125707
#        141976
#        158376
#
# Disc length: 2448 seconds
#
# Revision: 0
# Processed by: cddbd v1.5.1PL2 Copyright (c) Steve Scherf et al.
# Submitted via: ExactAudioCopy v0.95b3
#
DISCID=83098e0a
DTITLE=Andraé Crouch - This Is Another Day
DYEAR=1976
DGENRE=Gospel
TTITLE0=Perfect Peace
TTITLE1=My Peace I Leave With You
TTITLE2=This Is Another Day
TTITLE3=Queit Times
TTITLE4=Soon And Very Soon
TTITLE5=We Expect You
TTITLE6=You Gave To Me
TTITLE7=All That I Have
TTITLE8=The Choice
TTITLE9=Polynesian Praise Song (I Love You)
EXTD=
EXTT0=
EXTT1=
EXTT2=
EXTT3=
EXTT4=
EXTT5=
EXTT6=
EXTT7=
EXTT8=
EXTT9=
PLAYORDER=
